<svg width="732.0" height="2912.0" viewBox="0 0 732.0 2912.0" class="keymap" xmlns="http://www.w3.org/2000/svg" xmlns:xlink="http://www.w3.org/1999/xlink">
<style>/* inherit to force styles through use tags*/
svg path {
    fill: inherit;
}
/* font and background color specifications */
svg.keymap {
    font-family: SFMono-Regular,Consolas,Liberation Mono,Menlo,monospace;
    font-size: 14px;
    font-kerning: normal;
    text-rendering: optimizeLegibility;
    fill: #24292e;
}

/* default key styling */
rect.key {
    fill: #f6f8fa;
    stroke: #c9cccf;
    stroke-width: 1;
}

/* color accent for combo boxes */
rect.combo {
    fill: #cdf;
}

/* color accent for held keys */
rect.held, rect.combo.held {
    fill: #fdd;
}

/* color accent for ghost (optional) keys */
rect.ghost, rect.combo.ghost {
    fill: #ddd;
}

text {
    text-anchor: middle;
    dominant-baseline: middle;
}

/* styling for layer labels */
text.label {
    font-weight: bold;
    text-anchor: start;
    stroke: white;
    stroke-width: 2;
    paint-order: stroke;
}

/* styling for combo tap, and key hold/shifted label text */
text.combo, text.hold, text.shifted {
    font-size: 11px;
}

text.hold {
    text-anchor: middle;
    dominant-baseline: auto;
}

text.shifted {
    text-anchor: middle;
    dominant-baseline: hanging;
}

/* styling for hold/shifted label text in combo box */
text.combo.hold, text.combo.shifted {
    font-size: 8px;
}

/* lighter symbol for transparent keys */
text.trans {
    fill: #7b7e81;
}

/* styling for combo dendrons */
path.combo {
    stroke-width: 1;
    stroke: gray;
    fill: none;
}

/* Start Tabler Icons Cleanup */
/* cannot use height/width with glyphs */
.icon-tabler > path {
    fill: inherit;
    stroke: inherit;
}
/* hide tabler's default box */
.icon-tabler > path[stroke="none"][fill="none"] {
    visibility: collapse;
}
/* End Tabler Icons Cleanup */
</style>
<g class="layer-Base">
<text x="30.0" y="28.0" class="label">Base:</text>
<rect rx="6.0" ry="6.0" x="32.0" y="79.0" width="52.0" height="52.0" class="key"/>
<text x="58.0" y="105.0" class="tap">W</text>
<rect rx="6.0" ry="6.0" x="88.0" y="65.0" width="52.0" height="52.0" class="key"/>
<text x="114.0" y="91.0" class="tap">X</text>
<rect rx="6.0" ry="6.0" x="144.0" y="58.0" width="52.0" height="52.0" class="key"/>
<text x="170.0" y="84.0" class="tap">M</text>
<rect rx="6.0" ry="6.0" x="200.0" y="65.0" width="52.0" height="52.0" class="key"/>
<text x="226.0" y="91.0" class="tap">G</text>
<rect rx="6.0" ry="6.0" x="256.0" y="79.0" width="52.0" height="52.0" class="key"/>
<text x="282.0" y="105.0" class="tap">J</text>
<rect rx="6.0" ry="6.0" x="424.0" y="79.0" width="52.0" height="52.0" class="key"/>
<text x="450.0" y="105.0" class="tap">;</text>
<text x="450.0" y="81.0" class="shifted">:</text>
<rect rx="6.0" ry="6.0" x="480.0" y="65.0" width="52.0" height="52.0" class="key"/>
<text x="506.0" y="91.0" class="tap">.</text>
<text x="506.0" y="67.0" class="shifted">(</text>
<rect rx="6.0" ry="6.0" x="536.0" y="58.0" width="52.0" height="52.0" class="key"/>
<text x="562.0" y="84.0" class="tap">/</text>
<text x="562.0" y="60.0" class="shifted">\</text>
<rect rx="6.0" ry="6.0" x="592.0" y="65.0" width="52.0" height="52.0" class="key"/>
<text x="618.0" y="91.0" class="tap">&quot;</text>
<text x="618.0" y="67.0" class="shifted">?</text>
<rect rx="6.0" ry="6.0" x="648.0" y="79.0" width="52.0" height="52.0" class="key"/>
<text x="674.0" y="105.0" class="tap">&#x27;</text>
<text x="674.0" y="129.0" class="hold">Button</text>
<text x="674.0" y="81.0" class="shifted">!</text>
<rect rx="6.0" ry="6.0" x="32.0" y="135.0" width="52.0" height="52.0" class="key"/>
<text x="58.0" y="161.0" class="tap">C</text>
<text x="58.0" y="185.0" class="hold">Meta</text>
<rect rx="6.0" ry="6.0" x="88.0" y="121.0" width="52.0" height="52.0" class="key"/>
<text x="114.0" y="147.0" class="tap">S</text>
<text x="114.0" y="171.0" class="hold">Alt</text>
<rect rx="6.0" ry="6.0" x="144.0" y="114.0" width="52.0" height="52.0" class="key"/>
<text x="170.0" y="140.0" class="tap">N</text>
<text x="170.0" y="164.0" class="hold">Ctrl</text>
<rect rx="6.0" ry="6.0" x="200.0" y="121.0" width="52.0" height="52.0" class="key"/>
<text x="226.0" y="147.0" class="tap">T</text>
<text x="226.0" y="171.0" class="hold">Shift</text>
<rect rx="6.0" ry="6.0" x="256.0" y="135.0" width="52.0" height="52.0" class="key"/>
<text x="282.0" y="161.0" class="tap">K</text>
<rect rx="6.0" ry="6.0" x="424.0" y="135.0" width="52.0" height="52.0" class="key"/>
<text x="450.0" y="161.0" class="tap">,</text>
<text x="450.0" y="137.0" class="shifted">)</text>
<rect rx="6.0" ry="6.0" x="480.0" y="121.0" width="52.0" height="52.0" class="key"/>
<text x="506.0" y="147.0" class="tap">A</text>
<text x="506.0" y="171.0" class="hold">Shift</text>
<rect rx="6.0" ry="6.0" x="536.0" y="114.0" width="52.0" height="52.0" class="key"/>
<text x="562.0" y="140.0" class="tap">E</text>
<text x="562.0" y="164.0" class="hold">Ctrl</text>
<rect rx="6.0" ry="6.0" x="592.0" y="121.0" width="52.0" height="52.0" class="key"/>
<text x="618.0" y="147.0" class="tap">I</text>
<text x="618.0" y="171.0" class="hold">Alt</text>
<rect rx="6.0" ry="6.0" x="648.0" y="135.0" width="52.0" height="52.0" class="key"/>
<text x="674.0" y="161.0" class="tap">H</text>
<text x="674.0" y="185.0" class="hold">Meta</text>
<rect rx="6.0" ry="6.0" x="32.0" y="191.0" width="52.0" height="52.0" class="key"/>
<text x="58.0" y="217.0" class="tap">P</text>
<text x="58.0" y="241.0" class="hold">Button</text>
<rect rx="6.0" ry="6.0" x="88.0" y="177.0" width="52.0" height="52.0" class="key"/>
<text x="114.0" y="203.0" class="tap">F</text>
<rect rx="6.0" ry="6.0" x="144.0" y="170.0" width="52.0" height="52.0" class="key"/>
<text x="170.0" y="196.0" class="tap">L</text>
<rect rx="6.0" ry="6.0" x="200.0" y="177.0" width="52.0" height="52.0" class="key"/>
<text x="226.0" y="203.0" class="tap">D</text>
<rect rx="6.0" ry="6.0" x="256.0" y="191.0" width="52.0" height="52.0" class="key"/>
<text x="282.0" y="217.0" class="tap">V</text>
<rect rx="6.0" ry="6.0" x="424.0" y="191.0" width="52.0" height="52.0" class="key"/>
<text x="450.0" y="217.0" class="tap">-</text>
<text x="450.0" y="193.0" class="shifted">_</text>
<rect rx="6.0" ry="6.0" x="480.0" y="177.0" width="52.0" height="52.0" class="key"/>
<text x="506.0" y="203.0" class="tap">U</text>
<rect rx="6.0" ry="6.0" x="536.0" y="170.0" width="52.0" height="52.0" class="key"/>
<text x="562.0" y="196.0" class="tap">O</text>
<rect rx="6.0" ry="6.0" x="592.0" y="177.0" width="52.0" height="52.0" class="key"/>
<text x="618.0" y="203.0" class="tap">Y</text>
<rect rx="6.0" ry="6.0" x="648.0" y="191.0" width="52.0" height="52.0" class="key"/>
<text x="674.0" y="217.0" class="tap">B</text>
<text x="674.0" y="241.0" class="hold">Q</text>
<rect rx="6.0" ry="6.0" x="144.0" y="282.0" width="52.0" height="52.0" class="key"/>
<text x="170.0" y="308.0" class="tap">Esc</text>
<text x="170.0" y="332.0" class="hold">Media</text>
<rect rx="6.0" ry="6.0" x="200.0" y="289.0" width="52.0" height="52.0" class="key"/>
<text x="226.0" y="315.0" class="tap">R</text>
<text x="226.0" y="339.0" class="hold">Nav</text>
<rect rx="6.0" ry="6.0" x="256.0" y="303.0" width="52.0" height="52.0" class="key"/>
<text x="282.0" y="329.0" class="tap">Bksp</text>
<text x="282.0" y="353.0" class="hold">Mouse</text>
<text x="282.0" y="305.0" class="shifted">Del</text>
<rect rx="6.0" ry="6.0" x="424.0" y="303.0" width="52.0" height="52.0" class="key"/>
<text x="450.0" y="329.0" class="tap">Enter</text>
<text x="450.0" y="353.0" class="hold">Sym</text>
<rect rx="6.0" ry="6.0" x="480.0" y="289.0" width="52.0" height="52.0" class="key"/>
<text x="506.0" y="315.0" class="tap">Space</text>
<text x="506.0" y="339.0" class="hold">Num</text>
<rect rx="6.0" ry="6.0" x="536.0" y="282.0" width="52.0" height="52.0" class="key"/>
<text x="562.0" y="308.0" class="tap">Tab</text>
<text x="562.0" y="332.0" class="hold">Fun</text>
<rect rx="6.0" ry="6.0" x="72.0" y="85.0" width="28.0" height="26.0" class="combo"/>
<text x="86.0" y="98.0" class="combo tap">z</text>
<path d="M170.0,91.0 l-37.33333333333333,0.0" class="combo"/>
<path d="M170.0,91.0 l37.33333333333333,0.0" class="combo"/>
<rect rx="6.0" ry="6.0" x="156.0" y="78.0" width="28.0" height="26.0" class="combo"/>
<text x="170.0" y="91.0" class="combo tap">q</text>
</g>
<g class="layer-Num">
<text x="30.0" y="385.0" class="label">Num:</text>
<rect rx="6.0" ry="6.0" x="32.0" y="436.0" width="52.0" height="52.0" class="key"/>
<text x="58.0" y="462.0" class="tap">(</text>
<rect rx="6.0" ry="6.0" x="88.0" y="422.0" width="52.0" height="52.0" class="key"/>
<text x="114.0" y="448.0" class="tap">7</text>
<rect rx="6.0" ry="6.0" x="144.0" y="415.0" width="52.0" height="52.0" class="key"/>
<text x="170.0" y="441.0" class="tap">8</text>
<rect rx="6.0" ry="6.0" x="200.0" y="422.0" width="52.0" height="52.0" class="key"/>
<text x="226.0" y="448.0" class="tap">9</text>
<rect rx="6.0" ry="6.0" x="256.0" y="436.0" width="52.0" height="52.0" class="key"/>
<text x="282.0" y="462.0" class="tap">)</text>
<rect rx="6.0" ry="6.0" x="424.0" y="436.0" width="52.0" height="52.0" class="key"/>
<rect rx="6.0" ry="6.0" x="480.0" y="422.0" width="52.0" height="52.0" class="key"/>
<rect rx="6.0" ry="6.0" x="536.0" y="415.0" width="52.0" height="52.0" class="key"/>
<rect rx="6.0" ry="6.0" x="592.0" y="422.0" width="52.0" height="52.0" class="key"/>
<rect rx="6.0" ry="6.0" x="648.0" y="436.0" width="52.0" height="52.0" class="key"/>
<rect rx="6.0" ry="6.0" x="32.0" y="492.0" width="52.0" height="52.0" class="key"/>
<text x="58.0" y="518.0" class="tap">0</text>
<rect rx="6.0" ry="6.0" x="88.0" y="478.0" width="52.0" height="52.0" class="key"/>
<text x="114.0" y="504.0" class="tap">1</text>
<rect rx="6.0" ry="6.0" x="144.0" y="471.0" width="52.0" height="52.0" class="key"/>
<text x="170.0" y="497.0" class="tap">2</text>
<rect rx="6.0" ry="6.0" x="200.0" y="478.0" width="52.0" height="52.0" class="key"/>
<text x="226.0" y="504.0" class="tap">3</text>
<rect rx="6.0" ry="6.0" x="256.0" y="492.0" width="52.0" height="52.0" class="key"/>
<text x="282.0" y="518.0" class="tap">*</text>
<text x="282.0" y="494.0" class="shifted">/</text>
<rect rx="6.0" ry="6.0" x="424.0" y="492.0" width="52.0" height="52.0" class="key"/>
<rect rx="6.0" ry="6.0" x="480.0" y="478.0" width="52.0" height="52.0" class="key"/>
<text x="506.0" y="504.0" class="tap">Shift</text>
<rect rx="6.0" ry="6.0" x="536.0" y="471.0" width="52.0" height="52.0" class="key"/>
<text x="562.0" y="497.0" class="tap">Ctrl</text>
<rect rx="6.0" ry="6.0" x="592.0" y="478.0" width="52.0" height="52.0" class="key"/>
<text x="618.0" y="504.0" class="tap">Alt</text>
<rect rx="6.0" ry="6.0" x="648.0" y="492.0" width="52.0" height="52.0" class="key"/>
<text x="674.0" y="518.0" class="tap">Meta</text>
<rect rx="6.0" ry="6.0" x="32.0" y="548.0" width="52.0" height="52.0" class="key"/>
<rect rx="6.0" ry="6.0" x="88.0" y="534.0" width="52.0" height="52.0" class="key"/>
<text x="114.0" y="560.0" class="tap">4</text>
<rect rx="6.0" ry="6.0" x="144.0" y="527.0" width="52.0" height="52.0" class="key"/>
<text x="170.0" y="553.0" class="tap">5</text>
<rect rx="6.0" ry="6.0" x="200.0" y="534.0" width="52.0" height="52.0" class="key"/>
<text x="226.0" y="560.0" class="tap">6</text>
<rect rx="6.0" ry="6.0" x="256.0" y="548.0" width="52.0" height="52.0" class="key"/>
<text x="282.0" y="574.0" class="tap">^</text>
<rect rx="6.0" ry="6.0" x="424.0" y="548.0" width="52.0" height="52.0" class="key"/>
<rect rx="6.0" ry="6.0" x="480.0" y="534.0" width="52.0" height="52.0" class="key"/>
<rect rx="6.0" ry="6.0" x="536.0" y="527.0" width="52.0" height="52.0" class="key"/>
<rect rx="6.0" ry="6.0" x="592.0" y="534.0" width="52.0" height="52.0" class="key"/>
<rect rx="6.0" ry="6.0" x="648.0" y="548.0" width="52.0" height="52.0" class="key"/>
<rect rx="6.0" ry="6.0" x="144.0" y="639.0" width="52.0" height="52.0" class="key"/>
<text x="170.0" y="665.0" class="tap">+</text>
<text x="170.0" y="641.0" class="shifted">-</text>
<rect rx="6.0" ry="6.0" x="200.0" y="646.0" width="52.0" height="52.0" class="key"/>
<text x="226.0" y="672.0" class="tap">.</text>
<rect rx="6.0" ry="6.0" x="256.0" y="660.0" width="52.0" height="52.0" class="key"/>
<text x="282.0" y="686.0" class="tap">=</text>
<rect rx="6.0" ry="6.0" x="424.0" y="660.0" width="52.0" height="52.0" class="key"/>
<rect rx="6.0" ry="6.0" x="480.0" y="646.0" width="52.0" height="52.0" class="held key"/>
<rect rx="6.0" ry="6.0" x="536.0" y="639.0" width="52.0" height="52.0" class="key"/>
</g>
<g class="layer-Sym">
<text x="30.0" y="742.0" class="label">Sym:</text>
<rect rx="6.0" ry="6.0" x="32.0" y="793.0" width="52.0" height="52.0" class="key"/>
<rect rx="6.0" ry="6.0" x="88.0" y="779.0" width="52.0" height="52.0" class="key"/>
<text x="114.0" y="805.0" class="tap">#</text>
<rect rx="6.0" ry="6.0" x="144.0" y="772.0" width="52.0" height="52.0" class="key"/>
<text x="170.0" y="798.0" class="tap">$</text>
<rect rx="6.0" ry="6.0" x="200.0" y="779.0" width="52.0" height="52.0" class="key"/>
<text x="226.0" y="805.0" class="tap">%</text>
<rect rx="6.0" ry="6.0" x="256.0" y="793.0" width="52.0" height="52.0" class="key"/>
<rect rx="6.0" ry="6.0" x="424.0" y="793.0" width="52.0" height="52.0" class="key"/>
<rect rx="6.0" ry="6.0" x="480.0" y="779.0" width="52.0" height="52.0" class="key"/>
<rect rx="6.0" ry="6.0" x="536.0" y="772.0" width="52.0" height="52.0" class="key"/>
<rect rx="6.0" ry="6.0" x="592.0" y="779.0" width="52.0" height="52.0" class="key"/>
<rect rx="6.0" ry="6.0" x="648.0" y="793.0" width="52.0" height="52.0" class="key"/>
<rect rx="6.0" ry="6.0" x="32.0" y="849.0" width="52.0" height="52.0" class="key"/>
<text x="58.0" y="875.0" class="tap">`</text>
<rect rx="6.0" ry="6.0" x="88.0" y="835.0" width="52.0" height="52.0" class="key"/>
<text x="114.0" y="861.0" class="tap">&lt;</text>
<rect rx="6.0" ry="6.0" x="144.0" y="828.0" width="52.0" height="52.0" class="key"/>
<text x="170.0" y="854.0" class="tap">|</text>
<rect rx="6.0" ry="6.0" x="200.0" y="835.0" width="52.0" height="52.0" class="key"/>
<text x="226.0" y="861.0" class="tap">&gt;</text>
<rect rx="6.0" ry="6.0" x="256.0" y="849.0" width="52.0" height="52.0" class="key"/>
<rect rx="6.0" ry="6.0" x="424.0" y="849.0" width="52.0" height="52.0" class="key"/>
<rect rx="6.0" ry="6.0" x="480.0" y="835.0" width="52.0" height="52.0" class="key"/>
<text x="506.0" y="861.0" class="tap">Shift</text>
<rect rx="6.0" ry="6.0" x="536.0" y="828.0" width="52.0" height="52.0" class="key"/>
<text x="562.0" y="854.0" class="tap">Ctrl</text>
<rect rx="6.0" ry="6.0" x="592.0" y="835.0" width="52.0" height="52.0" class="key"/>
<text x="618.0" y="861.0" class="tap">Alt</text>
<rect rx="6.0" ry="6.0" x="648.0" y="849.0" width="52.0" height="52.0" class="key"/>
<text x="674.0" y="875.0" class="tap">Meta</text>
<rect rx="6.0" ry="6.0" x="32.0" y="905.0" width="52.0" height="52.0" class="key"/>
<rect rx="6.0" ry="6.0" x="88.0" y="891.0" width="52.0" height="52.0" class="key"/>
<text x="114.0" y="917.0" class="tap">~</text>
<rect rx="6.0" ry="6.0" x="144.0" y="884.0" width="52.0" height="52.0" class="key"/>
<text x="170.0" y="910.0" class="tap">@</text>
<rect rx="6.0" ry="6.0" x="200.0" y="891.0" width="52.0" height="52.0" class="key"/>
<text x="226.0" y="917.0" class="tap">&amp;</text>
<rect rx="6.0" ry="6.0" x="256.0" y="905.0" width="52.0" height="52.0" class="key"/>
<rect rx="6.0" ry="6.0" x="424.0" y="905.0" width="52.0" height="52.0" class="key"/>
<rect rx="6.0" ry="6.0" x="480.0" y="891.0" width="52.0" height="52.0" class="key"/>
<rect rx="6.0" ry="6.0" x="536.0" y="884.0" width="52.0" height="52.0" class="key"/>
<rect rx="6.0" ry="6.0" x="592.0" y="891.0" width="52.0" height="52.0" class="key"/>
<rect rx="6.0" ry="6.0" x="648.0" y="905.0" width="52.0" height="52.0" class="key"/>
<rect rx="6.0" ry="6.0" x="144.0" y="996.0" width="52.0" height="52.0" class="key"/>
<text x="170.0" y="1022.0" class="tap">{</text>
<text x="170.0" y="998.0" class="shifted">}</text>
<rect rx="6.0" ry="6.0" x="200.0" y="1003.0" width="52.0" height="52.0" class="key"/>
<text x="226.0" y="1029.0" class="tap">(</text>
<text x="226.0" y="1005.0" class="shifted">)</text>
<rect rx="6.0" ry="6.0" x="256.0" y="1017.0" width="52.0" height="52.0" class="key"/>
<text x="282.0" y="1043.0" class="tap">[</text>
<text x="282.0" y="1019.0" class="shifted">]</text>
<rect rx="6.0" ry="6.0" x="424.0" y="1017.0" width="52.0" height="52.0" class="held key"/>
<rect rx="6.0" ry="6.0" x="480.0" y="1003.0" width="52.0" height="52.0" class="key"/>
<rect rx="6.0" ry="6.0" x="536.0" y="996.0" width="52.0" height="52.0" class="key"/>
</g>
<g class="layer-Fun">
<text x="30.0" y="1099.0" class="label">Fun:</text>
<rect rx="6.0" ry="6.0" x="32.0" y="1150.0" width="52.0" height="52.0" class="key"/>
<text x="58.0" y="1176.0" class="tap">F12</text>
<rect rx="6.0" ry="6.0" x="88.0" y="1136.0" width="52.0" height="52.0" class="key"/>
<text x="114.0" y="1162.0" class="tap">F7</text>
<rect rx="6.0" ry="6.0" x="144.0" y="1129.0" width="52.0" height="52.0" class="key"/>
<text x="170.0" y="1155.0" class="tap">F8</text>
<rect rx="6.0" ry="6.0" x="200.0" y="1136.0" width="52.0" height="52.0" class="key"/>
<text x="226.0" y="1162.0" class="tap">F9</text>
<rect rx="6.0" ry="6.0" x="256.0" y="1150.0" width="52.0" height="52.0" class="key"/>
<text x="282.0" y="1176.0" class="tap">
<tspan x="282.0" dy="-0.6em">PrtScn</tspan><tspan x="282.0" dy="1.2em">SysRq</tspan></text>
<rect rx="6.0" ry="6.0" x="424.0" y="1150.0" width="52.0" height="52.0" class="key"/>
<rect rx="6.0" ry="6.0" x="480.0" y="1136.0" width="52.0" height="52.0" class="key"/>
<rect rx="6.0" ry="6.0" x="536.0" y="1129.0" width="52.0" height="52.0" class="key"/>
<rect rx="6.0" ry="6.0" x="592.0" y="1136.0" width="52.0" height="52.0" class="key"/>
<rect rx="6.0" ry="6.0" x="648.0" y="1150.0" width="52.0" height="52.0" class="key"/>
<rect rx="6.0" ry="6.0" x="32.0" y="1206.0" width="52.0" height="52.0" class="key"/>
<text x="58.0" y="1232.0" class="tap">F11</text>
<rect rx="6.0" ry="6.0" x="88.0" y="1192.0" width="52.0" height="52.0" class="key"/>
<text x="114.0" y="1218.0" class="tap">F4</text>
<rect rx="6.0" ry="6.0" x="144.0" y="1185.0" width="52.0" height="52.0" class="key"/>
<text x="170.0" y="1211.0" class="tap">F5</text>
<rect rx="6.0" ry="6.0" x="200.0" y="1192.0" width="52.0" height="52.0" class="key"/>
<text x="226.0" y="1218.0" class="tap">F6</text>
<rect rx="6.0" ry="6.0" x="256.0" y="1206.0" width="52.0" height="52.0" class="key"/>
<text x="282.0" y="1232.0" class="tap">
<tspan x="282.0" dy="-0.6em">Scroll</tspan><tspan x="282.0" dy="1.2em">Lock</tspan></text>
<rect rx="6.0" ry="6.0" x="424.0" y="1206.0" width="52.0" height="52.0" class="key"/>
<rect rx="6.0" ry="6.0" x="480.0" y="1192.0" width="52.0" height="52.0" class="key"/>
<text x="506.0" y="1218.0" class="tap">Shift</text>
<rect rx="6.0" ry="6.0" x="536.0" y="1185.0" width="52.0" height="52.0" class="key"/>
<text x="562.0" y="1211.0" class="tap">Ctrl</text>
<rect rx="6.0" ry="6.0" x="592.0" y="1192.0" width="52.0" height="52.0" class="key"/>
<text x="618.0" y="1218.0" class="tap">Alt</text>
<rect rx="6.0" ry="6.0" x="648.0" y="1206.0" width="52.0" height="52.0" class="key"/>
<text x="674.0" y="1232.0" class="tap">Meta</text>
<rect rx="6.0" ry="6.0" x="32.0" y="1262.0" width="52.0" height="52.0" class="key"/>
<text x="58.0" y="1288.0" class="tap">F10</text>
<rect rx="6.0" ry="6.0" x="88.0" y="1248.0" width="52.0" height="52.0" class="key"/>
<text x="114.0" y="1274.0" class="tap">F1</text>
<rect rx="6.0" ry="6.0" x="144.0" y="1241.0" width="52.0" height="52.0" class="key"/>
<text x="170.0" y="1267.0" class="tap">F2</text>
<rect rx="6.0" ry="6.0" x="200.0" y="1248.0" width="52.0" height="52.0" class="key"/>
<text x="226.0" y="1274.0" class="tap">F3</text>
<rect rx="6.0" ry="6.0" x="256.0" y="1262.0" width="52.0" height="52.0" class="key"/>
<text x="282.0" y="1288.0" class="tap">
<tspan x="282.0" dy="-0.6em">Pause</tspan><tspan x="282.0" dy="1.2em">Break</tspan></text>
<rect rx="6.0" ry="6.0" x="424.0" y="1262.0" width="52.0" height="52.0" class="key"/>
<rect rx="6.0" ry="6.0" x="480.0" y="1248.0" width="52.0" height="52.0" class="key"/>
<rect rx="6.0" ry="6.0" x="536.0" y="1241.0" width="52.0" height="52.0" class="key"/>
<rect rx="6.0" ry="6.0" x="592.0" y="1248.0" width="52.0" height="52.0" class="key"/>
<rect rx="6.0" ry="6.0" x="648.0" y="1262.0" width="52.0" height="52.0" class="key"/>
<rect rx="6.0" ry="6.0" x="144.0" y="1353.0" width="52.0" height="52.0" class="key"/>
<text x="170.0" y="1379.0" class="tap">Esc</text>
<rect rx="6.0" ry="6.0" x="200.0" y="1360.0" width="52.0" height="52.0" class="key"/>
<text x="226.0" y="1386.0" class="tap">R</text>
<rect rx="6.0" ry="6.0" x="256.0" y="1374.0" width="52.0" height="52.0" class="key"/>
<text x="282.0" y="1400.0" class="tap">Bksp</text>
<text x="282.0" y="1376.0" class="shifted">Del</text>
<rect rx="6.0" ry="6.0" x="424.0" y="1374.0" width="52.0" height="52.0" class="key"/>
<rect rx="6.0" ry="6.0" x="480.0" y="1360.0" width="52.0" height="52.0" class="key"/>
<rect rx="6.0" ry="6.0" x="536.0" y="1353.0" width="52.0" height="52.0" class="held key"/>
</g>
<g class="layer-Nav">
<text x="30.0" y="1456.0" class="label">Nav:</text>
<rect rx="6.0" ry="6.0" x="32.0" y="1507.0" width="52.0" height="52.0" class="key"/>
<rect rx="6.0" ry="6.0" x="88.0" y="1493.0" width="52.0" height="52.0" class="key"/>
<rect rx="6.0" ry="6.0" x="144.0" y="1486.0" width="52.0" height="52.0" class="key"/>
<rect rx="6.0" ry="6.0" x="200.0" y="1493.0" width="52.0" height="52.0" class="key"/>
<rect rx="6.0" ry="6.0" x="256.0" y="1507.0" width="52.0" height="52.0" class="key"/>
<rect rx="6.0" ry="6.0" x="424.0" y="1507.0" width="52.0" height="52.0" class="key"/>
<text x="450.0" y="1533.0" class="tap">Redo</text>
<rect rx="6.0" ry="6.0" x="480.0" y="1493.0" width="52.0" height="52.0" class="key"/>
<text x="506.0" y="1519.0" class="tap">Paste</text>
<rect rx="6.0" ry="6.0" x="536.0" y="1486.0" width="52.0" height="52.0" class="key"/>
<text x="562.0" y="1512.0" class="tap">Copy</text>
<rect rx="6.0" ry="6.0" x="592.0" y="1493.0" width="52.0" height="52.0" class="key"/>
<text x="618.0" y="1519.0" class="tap">Cut</text>
<rect rx="6.0" ry="6.0" x="648.0" y="1507.0" width="52.0" height="52.0" class="key"/>
<text x="674.0" y="1533.0" class="tap">Undo</text>
<rect rx="6.0" ry="6.0" x="32.0" y="1563.0" width="52.0" height="52.0" class="key"/>
<text x="58.0" y="1589.0" class="tap">Meta</text>
<rect rx="6.0" ry="6.0" x="88.0" y="1549.0" width="52.0" height="52.0" class="key"/>
<text x="114.0" y="1575.0" class="tap">Alt</text>
<rect rx="6.0" ry="6.0" x="144.0" y="1542.0" width="52.0" height="52.0" class="key"/>
<text x="170.0" y="1568.0" class="tap">Ctrl</text>
<rect rx="6.0" ry="6.0" x="200.0" y="1549.0" width="52.0" height="52.0" class="key"/>
<text x="226.0" y="1575.0" class="tap">Shift</text>
<rect rx="6.0" ry="6.0" x="256.0" y="1563.0" width="52.0" height="52.0" class="key"/>
<rect rx="6.0" ry="6.0" x="424.0" y="1563.0" width="52.0" height="52.0" class="key"/>
<text x="450.0" y="1589.0" class="tap">
<tspan x="450.0" dy="-0.6em">Caps</tspan><tspan x="450.0" dy="1.2em">Lock</tspan></text>
<rect rx="6.0" ry="6.0" x="480.0" y="1549.0" width="52.0" height="52.0" class="key"/>
<text x="506.0" y="1575.0" class="tap">Left</text>
<rect rx="6.0" ry="6.0" x="536.0" y="1542.0" width="52.0" height="52.0" class="key"/>
<text x="562.0" y="1568.0" class="tap">Down</text>
<rect rx="6.0" ry="6.0" x="592.0" y="1549.0" width="52.0" height="52.0" class="key"/>
<text x="618.0" y="1575.0" class="tap">Up</text>
<rect rx="6.0" ry="6.0" x="648.0" y="1563.0" width="52.0" height="52.0" class="key"/>
<text x="674.0" y="1589.0" class="tap">Right</text>
<rect rx="6.0" ry="6.0" x="32.0" y="1619.0" width="52.0" height="52.0" class="key"/>
<rect rx="6.0" ry="6.0" x="88.0" y="1605.0" width="52.0" height="52.0" class="key"/>
<rect rx="6.0" ry="6.0" x="144.0" y="1598.0" width="52.0" height="52.0" class="key"/>
<rect rx="6.0" ry="6.0" x="200.0" y="1605.0" width="52.0" height="52.0" class="key"/>
<rect rx="6.0" ry="6.0" x="256.0" y="1619.0" width="52.0" height="52.0" class="key"/>
<rect rx="6.0" ry="6.0" x="424.0" y="1619.0" width="52.0" height="52.0" class="key"/>
<text x="450.0" y="1645.0" class="tap">Ins</text>
<rect rx="6.0" ry="6.0" x="480.0" y="1605.0" width="52.0" height="52.0" class="key"/>
<text x="506.0" y="1631.0" class="tap">Home</text>
<rect rx="6.0" ry="6.0" x="536.0" y="1598.0" width="52.0" height="52.0" class="key"/>
<text x="562.0" y="1624.0" class="tap">
<tspan x="562.0" dy="-0.6em">Pg</tspan><tspan x="562.0" dy="1.2em">Dn</tspan></text>
<rect rx="6.0" ry="6.0" x="592.0" y="1605.0" width="52.0" height="52.0" class="key"/>
<text x="618.0" y="1631.0" class="tap">
<tspan x="618.0" dy="-0.6em">Pg</tspan><tspan x="618.0" dy="1.2em">Up</tspan></text>
<rect rx="6.0" ry="6.0" x="648.0" y="1619.0" width="52.0" height="52.0" class="key"/>
<text x="674.0" y="1645.0" class="tap">End</text>
<rect rx="6.0" ry="6.0" x="144.0" y="1710.0" width="52.0" height="52.0" class="key"/>
<rect rx="6.0" ry="6.0" x="200.0" y="1717.0" width="52.0" height="52.0" class="held key"/>
<rect rx="6.0" ry="6.0" x="256.0" y="1731.0" width="52.0" height="52.0" class="key"/>
<rect rx="6.0" ry="6.0" x="424.0" y="1731.0" width="52.0" height="52.0" class="key"/>
<text x="450.0" y="1757.0" class="tap">Enter</text>
<rect rx="6.0" ry="6.0" x="480.0" y="1717.0" width="52.0" height="52.0" class="key"/>
<text x="506.0" y="1743.0" class="tap">Space</text>
<rect rx="6.0" ry="6.0" x="536.0" y="1710.0" width="52.0" height="52.0" class="key"/>
<text x="562.0" y="1736.0" class="tap">Tab</text>
</g>
<g class="layer-Mouse">
<text x="30.0" y="1813.0" class="label">Mouse:</text>
<rect rx="6.0" ry="6.0" x="32.0" y="1864.0" width="52.0" height="52.0" class="key"/>
<rect rx="6.0" ry="6.0" x="88.0" y="1850.0" width="52.0" height="52.0" class="key"/>
<rect rx="6.0" ry="6.0" x="144.0" y="1843.0" width="52.0" height="52.0" class="key"/>
<rect rx="6.0" ry="6.0" x="200.0" y="1850.0" width="52.0" height="52.0" class="key"/>
<rect rx="6.0" ry="6.0" x="256.0" y="1864.0" width="52.0" height="52.0" class="key"/>
<rect rx="6.0" ry="6.0" x="424.0" y="1864.0" width="52.0" height="52.0" class="key"/>
<text x="450.0" y="1890.0" class="tap">Redo</text>
<rect rx="6.0" ry="6.0" x="480.0" y="1850.0" width="52.0" height="52.0" class="key"/>
<text x="506.0" y="1876.0" class="tap">Paste</text>
<rect rx="6.0" ry="6.0" x="536.0" y="1843.0" width="52.0" height="52.0" class="key"/>
<text x="562.0" y="1869.0" class="tap">Copy</text>
<rect rx="6.0" ry="6.0" x="592.0" y="1850.0" width="52.0" height="52.0" class="key"/>
<text x="618.0" y="1876.0" class="tap">Cut</text>
<rect rx="6.0" ry="6.0" x="648.0" y="1864.0" width="52.0" height="52.0" class="key"/>
<text x="674.0" y="1890.0" class="tap">Undo</text>
<rect rx="6.0" ry="6.0" x="32.0" y="1920.0" width="52.0" height="52.0" class="key"/>
<text x="58.0" y="1946.0" class="tap">Meta</text>
<rect rx="6.0" ry="6.0" x="88.0" y="1906.0" width="52.0" height="52.0" class="key"/>
<text x="114.0" y="1932.0" class="tap">Alt</text>
<rect rx="6.0" ry="6.0" x="144.0" y="1899.0" width="52.0" height="52.0" class="key"/>
<text x="170.0" y="1925.0" class="tap">Ctrl</text>
<rect rx="6.0" ry="6.0" x="200.0" y="1906.0" width="52.0" height="52.0" class="key"/>
<text x="226.0" y="1932.0" class="tap">Shift</text>
<rect rx="6.0" ry="6.0" x="256.0" y="1920.0" width="52.0" height="52.0" class="key"/>
<rect rx="6.0" ry="6.0" x="424.0" y="1920.0" width="52.0" height="52.0" class="key"/>
<rect rx="6.0" ry="6.0" x="480.0" y="1906.0" width="52.0" height="52.0" class="key"/>
<text x="506.0" y="1932.0" class="tap">
<tspan x="506.0" dy="-0.6em">Mouse</tspan><tspan x="506.0" dy="1.2em">Left</tspan></text>
<rect rx="6.0" ry="6.0" x="536.0" y="1899.0" width="52.0" height="52.0" class="key"/>
<text x="562.0" y="1925.0" class="tap">
<tspan x="562.0" dy="-0.6em">Mouse</tspan><tspan x="562.0" dy="1.2em">Down</tspan></text>
<rect rx="6.0" ry="6.0" x="592.0" y="1906.0" width="52.0" height="52.0" class="key"/>
<text x="618.0" y="1932.0" class="tap">
<tspan x="618.0" dy="-0.6em">Mouse</tspan><tspan x="618.0" dy="1.2em">Up</tspan></text>
<rect rx="6.0" ry="6.0" x="648.0" y="1920.0" width="52.0" height="52.0" class="key"/>
<text x="674.0" y="1946.0" class="tap">
<tspan x="674.0" dy="-0.6em">Mouse</tspan><tspan x="674.0" dy="1.2em">Right</tspan></text>
<rect rx="6.0" ry="6.0" x="32.0" y="1976.0" width="52.0" height="52.0" class="key"/>
<rect rx="6.0" ry="6.0" x="88.0" y="1962.0" width="52.0" height="52.0" class="key"/>
<rect rx="6.0" ry="6.0" x="144.0" y="1955.0" width="52.0" height="52.0" class="key"/>
<rect rx="6.0" ry="6.0" x="200.0" y="1962.0" width="52.0" height="52.0" class="key"/>
<rect rx="6.0" ry="6.0" x="256.0" y="1976.0" width="52.0" height="52.0" class="key"/>
<rect rx="6.0" ry="6.0" x="424.0" y="1976.0" width="52.0" height="52.0" class="key"/>
<rect rx="6.0" ry="6.0" x="480.0" y="1962.0" width="52.0" height="52.0" class="key"/>
<text x="506.0" y="1988.0" class="tap">
<tspan x="506.0" dy="-0.6em">Scroll</tspan><tspan x="506.0" dy="1.2em">Left</tspan></text>
<rect rx="6.0" ry="6.0" x="536.0" y="1955.0" width="52.0" height="52.0" class="key"/>
<text x="562.0" y="1981.0" class="tap">
<tspan x="562.0" dy="-0.6em">Scroll</tspan><tspan x="562.0" dy="1.2em">Down</tspan></text>
<rect rx="6.0" ry="6.0" x="592.0" y="1962.0" width="52.0" height="52.0" class="key"/>
<text x="618.0" y="1988.0" class="tap">
<tspan x="618.0" dy="-0.6em">Scroll</tspan><tspan x="618.0" dy="1.2em">Up</tspan></text>
<rect rx="6.0" ry="6.0" x="648.0" y="1976.0" width="52.0" height="52.0" class="key"/>
<text x="674.0" y="2002.0" class="tap">
<tspan x="674.0" dy="-0.6em">Scroll</tspan><tspan x="674.0" dy="1.2em">Right</tspan></text>
<rect rx="6.0" ry="6.0" x="144.0" y="2067.0" width="52.0" height="52.0" class="key"/>
<rect rx="6.0" ry="6.0" x="200.0" y="2074.0" width="52.0" height="52.0" class="key"/>
<rect rx="6.0" ry="6.0" x="256.0" y="2088.0" width="52.0" height="52.0" class="held key"/>
<rect rx="6.0" ry="6.0" x="424.0" y="2088.0" width="52.0" height="52.0" class="key"/>
<text x="450.0" y="2114.0" class="tap">
<tspan x="450.0" dy="-0.6em">Right</tspan><tspan x="450.0" dy="1.2em">Click</tspan></text>
<rect rx="6.0" ry="6.0" x="480.0" y="2074.0" width="52.0" height="52.0" class="key"/>
<text x="506.0" y="2100.0" class="tap">
<tspan x="506.0" dy="-0.6em">Left</tspan><tspan x="506.0" dy="1.2em">Click</tspan></text>
<rect rx="6.0" ry="6.0" x="536.0" y="2067.0" width="52.0" height="52.0" class="key"/>
<text x="562.0" y="2093.0" class="tap">
<tspan x="562.0" dy="-0.6em">Middle</tspan><tspan x="562.0" dy="1.2em">Click</tspan></text>
</g>
<g class="layer-Media">
<text x="30.0" y="2170.0" class="label">Media:</text>
<rect rx="6.0" ry="6.0" x="32.0" y="2221.0" width="52.0" height="52.0" class="key"/>
<rect rx="6.0" ry="6.0" x="88.0" y="2207.0" width="52.0" height="52.0" class="key"/>
<rect rx="6.0" ry="6.0" x="144.0" y="2200.0" width="52.0" height="52.0" class="key"/>
<rect rx="6.0" ry="6.0" x="200.0" y="2207.0" width="52.0" height="52.0" class="key"/>
<rect rx="6.0" ry="6.0" x="256.0" y="2221.0" width="52.0" height="52.0" class="key"/>
<rect rx="6.0" ry="6.0" x="424.0" y="2221.0" width="52.0" height="52.0" class="key"/>
<rect rx="6.0" ry="6.0" x="480.0" y="2207.0" width="52.0" height="52.0" class="key"/>
<text x="506.0" y="2233.0" class="tap">
<tspan x="506.0" dy="-0.6em">LED</tspan><tspan x="506.0" dy="1.2em">Prev</tspan></text>
<rect rx="6.0" ry="6.0" x="536.0" y="2200.0" width="52.0" height="52.0" class="key"/>
<text x="562.0" y="2226.0" class="tap">
<tspan x="562.0" dy="-1.2em">Disp</tspan><tspan x="562.0" dy="1.2em">Brtns</tspan><tspan x="562.0" dy="1.2em">Down</tspan></text>
<rect rx="6.0" ry="6.0" x="592.0" y="2207.0" width="52.0" height="52.0" class="key"/>
<text x="618.0" y="2233.0" class="tap">
<tspan x="618.0" dy="-1.2em">Disp</tspan><tspan x="618.0" dy="1.2em">Brtns</tspan><tspan x="618.0" dy="1.2em">Up</tspan></text>
<rect rx="6.0" ry="6.0" x="648.0" y="2221.0" width="52.0" height="52.0" class="key"/>
<text x="674.0" y="2247.0" class="tap">
<tspan x="674.0" dy="-0.6em">LED</tspan><tspan x="674.0" dy="1.2em">Next</tspan></text>
<rect rx="6.0" ry="6.0" x="32.0" y="2277.0" width="52.0" height="52.0" class="key"/>
<text x="58.0" y="2303.0" class="tap">Meta</text>
<rect rx="6.0" ry="6.0" x="88.0" y="2263.0" width="52.0" height="52.0" class="key"/>
<text x="114.0" y="2289.0" class="tap">Alt</text>
<rect rx="6.0" ry="6.0" x="144.0" y="2256.0" width="52.0" height="52.0" class="key"/>
<text x="170.0" y="2282.0" class="tap">Ctrl</text>
<rect rx="6.0" ry="6.0" x="200.0" y="2263.0" width="52.0" height="52.0" class="key"/>
<text x="226.0" y="2289.0" class="tap">Shift</text>
<rect rx="6.0" ry="6.0" x="256.0" y="2277.0" width="52.0" height="52.0" class="key"/>
<rect rx="6.0" ry="6.0" x="424.0" y="2277.0" width="52.0" height="52.0" class="key"/>
<rect rx="6.0" ry="6.0" x="480.0" y="2263.0" width="52.0" height="52.0" class="key"/>
<text x="506.0" y="2289.0" class="tap">Prev</text>
<rect rx="6.0" ry="6.0" x="536.0" y="2256.0" width="52.0" height="52.0" class="key"/>
<text x="562.0" y="2282.0" class="tap">
<tspan x="562.0" dy="-0.6em">Volume</tspan><tspan x="562.0" dy="1.2em">Down</tspan></text>
<rect rx="6.0" ry="6.0" x="592.0" y="2263.0" width="52.0" height="52.0" class="key"/>
<text x="618.0" y="2289.0" class="tap">
<tspan x="618.0" dy="-0.6em">Volume</tspan><tspan x="618.0" dy="1.2em">Up</tspan></text>
<rect rx="6.0" ry="6.0" x="648.0" y="2277.0" width="52.0" height="52.0" class="key"/>
<text x="674.0" y="2303.0" class="tap">Next</text>
<rect rx="6.0" ry="6.0" x="32.0" y="2333.0" width="52.0" height="52.0" class="key"/>
<rect rx="6.0" ry="6.0" x="88.0" y="2319.0" width="52.0" height="52.0" class="key"/>
<rect rx="6.0" ry="6.0" x="144.0" y="2312.0" width="52.0" height="52.0" class="key"/>
<rect rx="6.0" ry="6.0" x="200.0" y="2319.0" width="52.0" height="52.0" class="key"/>
<rect rx="6.0" ry="6.0" x="256.0" y="2333.0" width="52.0" height="52.0" class="key"/>
<rect rx="6.0" ry="6.0" x="424.0" y="2333.0" width="52.0" height="52.0" class="key"/>
<rect rx="6.0" ry="6.0" x="480.0" y="2319.0" width="52.0" height="52.0" class="key"/>
<rect rx="6.0" ry="6.0" x="536.0" y="2312.0" width="52.0" height="52.0" class="key"/>
<rect rx="6.0" ry="6.0" x="592.0" y="2319.0" width="52.0" height="52.0" class="key"/>
<rect rx="6.0" ry="6.0" x="648.0" y="2333.0" width="52.0" height="52.0" class="key"/>
<rect rx="6.0" ry="6.0" x="144.0" y="2424.0" width="52.0" height="52.0" class="held key"/>
<rect rx="6.0" ry="6.0" x="200.0" y="2431.0" width="52.0" height="52.0" class="key"/>
<rect rx="6.0" ry="6.0" x="256.0" y="2445.0" width="52.0" height="52.0" class="key"/>
<rect rx="6.0" ry="6.0" x="424.0" y="2445.0" width="52.0" height="52.0" class="key"/>
<text x="450.0" y="2471.0" class="tap">Stop</text>
<rect rx="6.0" ry="6.0" x="480.0" y="2431.0" width="52.0" height="52.0" class="key"/>
<text x="506.0" y="2457.0" class="tap">
<tspan x="506.0" dy="-0.6em">Play</tspan><tspan x="506.0" dy="1.2em">Pause</tspan></text>
<rect rx="6.0" ry="6.0" x="536.0" y="2424.0" width="52.0" height="52.0" class="key"/>
<text x="562.0" y="2450.0" class="tap">Mute</text>
</g>
<g class="layer-Button">
<text x="30.0" y="2527.0" class="label">Button:</text>
<rect rx="6.0" ry="6.0" x="32.0" y="2578.0" width="52.0" height="52.0" class="key"/>
<text x="58.0" y="2604.0" class="tap">Undo</text>
<rect rx="6.0" ry="6.0" x="88.0" y="2564.0" width="52.0" height="52.0" class="key"/>
<text x="114.0" y="2590.0" class="tap">Cut</text>
<rect rx="6.0" ry="6.0" x="144.0" y="2557.0" width="52.0" height="52.0" class="key"/>
<text x="170.0" y="2583.0" class="tap">Copy</text>
<rect rx="6.0" ry="6.0" x="200.0" y="2564.0" width="52.0" height="52.0" class="key"/>
<text x="226.0" y="2590.0" class="tap">Paste</text>
<rect rx="6.0" ry="6.0" x="256.0" y="2578.0" width="52.0" height="52.0" class="key"/>
<text x="282.0" y="2604.0" class="tap">Redo</text>
<rect rx="6.0" ry="6.0" x="424.0" y="2578.0" width="52.0" height="52.0" class="key"/>
<text x="450.0" y="2604.0" class="tap">Redo</text>
<rect rx="6.0" ry="6.0" x="480.0" y="2564.0" width="52.0" height="52.0" class="key"/>
<text x="506.0" y="2590.0" class="tap">Paste</text>
<rect rx="6.0" ry="6.0" x="536.0" y="2557.0" width="52.0" height="52.0" class="key"/>
<text x="562.0" y="2583.0" class="tap">Copy</text>
<rect rx="6.0" ry="6.0" x="592.0" y="2564.0" width="52.0" height="52.0" class="key"/>
<text x="618.0" y="2590.0" class="tap">Cut</text>
<rect rx="6.0" ry="6.0" x="648.0" y="2578.0" width="52.0" height="52.0" class="held key"/>
<text x="674.0" y="2604.0" class="held tap">Undo</text>
<rect rx="6.0" ry="6.0" x="32.0" y="2634.0" width="52.0" height="52.0" class="key"/>
<text x="58.0" y="2660.0" class="tap">Meta</text>
<rect rx="6.0" ry="6.0" x="88.0" y="2620.0" width="52.0" height="52.0" class="key"/>
<text x="114.0" y="2646.0" class="tap">Alt</text>
<rect rx="6.0" ry="6.0" x="144.0" y="2613.0" width="52.0" height="52.0" class="key"/>
<text x="170.0" y="2639.0" class="tap">Ctrl</text>
<rect rx="6.0" ry="6.0" x="200.0" y="2620.0" width="52.0" height="52.0" class="key"/>
<text x="226.0" y="2646.0" class="tap">Shift</text>
<rect rx="6.0" ry="6.0" x="256.0" y="2634.0" width="52.0" height="52.0" class="key"/>
<rect rx="6.0" ry="6.0" x="424.0" y="2634.0" width="52.0" height="52.0" class="key"/>
<rect rx="6.0" ry="6.0" x="480.0" y="2620.0" width="52.0" height="52.0" class="key"/>
<text x="506.0" y="2646.0" class="tap">Shift</text>
<rect rx="6.0" ry="6.0" x="536.0" y="2613.0" width="52.0" height="52.0" class="key"/>
<text x="562.0" y="2639.0" class="tap">Ctrl</text>
<rect rx="6.0" ry="6.0" x="592.0" y="2620.0" width="52.0" height="52.0" class="key"/>
<text x="618.0" y="2646.0" class="tap">Alt</text>
<rect rx="6.0" ry="6.0" x="648.0" y="2634.0" width="52.0" height="52.0" class="key"/>
<text x="674.0" y="2660.0" class="tap">Meta</text>
<rect rx="6.0" ry="6.0" x="32.0" y="2690.0" width="52.0" height="52.0" class="held key"/>
<text x="58.0" y="2716.0" class="held tap">Undo</text>
<rect rx="6.0" ry="6.0" x="88.0" y="2676.0" width="52.0" height="52.0" class="key"/>
<text x="114.0" y="2702.0" class="tap">Cut</text>
<rect rx="6.0" ry="6.0" x="144.0" y="2669.0" width="52.0" height="52.0" class="key"/>
<text x="170.0" y="2695.0" class="tap">Copy</text>
<rect rx="6.0" ry="6.0" x="200.0" y="2676.0" width="52.0" height="52.0" class="key"/>
<text x="226.0" y="2702.0" class="tap">Paste</text>
<rect rx="6.0" ry="6.0" x="256.0" y="2690.0" width="52.0" height="52.0" class="key"/>
<text x="282.0" y="2716.0" class="tap">Redo</text>
<rect rx="6.0" ry="6.0" x="424.0" y="2690.0" width="52.0" height="52.0" class="key"/>
<text x="450.0" y="2716.0" class="tap">Redo</text>
<rect rx="6.0" ry="6.0" x="480.0" y="2676.0" width="52.0" height="52.0" class="key"/>
<text x="506.0" y="2702.0" class="tap">Paste</text>
<rect rx="6.0" ry="6.0" x="536.0" y="2669.0" width="52.0" height="52.0" class="key"/>
<text x="562.0" y="2695.0" class="tap">Copy</text>
<rect rx="6.0" ry="6.0" x="592.0" y="2676.0" width="52.0" height="52.0" class="key"/>
<text x="618.0" y="2702.0" class="tap">Cut</text>
<rect rx="6.0" ry="6.0" x="648.0" y="2690.0" width="52.0" height="52.0" class="key"/>
<text x="674.0" y="2716.0" class="tap">Undo</text>
<rect rx="6.0" ry="6.0" x="144.0" y="2781.0" width="52.0" height="52.0" class="key"/>
<text x="170.0" y="2807.0" class="tap">
<tspan x="170.0" dy="-0.6em">Middle</tspan><tspan x="170.0" dy="1.2em">Click</tspan></text>
<rect rx="6.0" ry="6.0" x="200.0" y="2788.0" width="52.0" height="52.0" class="key"/>
<text x="226.0" y="2814.0" class="tap">
<tspan x="226.0" dy="-0.6em">Left</tspan><tspan x="226.0" dy="1.2em">Click</tspan></text>
<rect rx="6.0" ry="6.0" x="256.0" y="2802.0" width="52.0" height="52.0" class="key"/>
<text x="282.0" y="2828.0" class="tap">
<tspan x="282.0" dy="-0.6em">Right</tspan><tspan x="282.0" dy="1.2em">Click</tspan></text>
<rect rx="6.0" ry="6.0" x="424.0" y="2802.0" width="52.0" height="52.0" class="key"/>
<text x="450.0" y="2828.0" class="tap">
<tspan x="450.0" dy="-0.6em">Right</tspan><tspan x="450.0" dy="1.2em">Click</tspan></text>
<rect rx="6.0" ry="6.0" x="480.0" y="2788.0" width="52.0" height="52.0" class="key"/>
<text x="506.0" y="2814.0" class="tap">
<tspan x="506.0" dy="-0.6em">Left</tspan><tspan x="506.0" dy="1.2em">Click</tspan></text>
<rect rx="6.0" ry="6.0" x="536.0" y="2781.0" width="52.0" height="52.0" class="key"/>
<text x="562.0" y="2807.0" class="tap">
<tspan x="562.0" dy="-0.6em">Middle</tspan><tspan x="562.0" dy="1.2em">Click</tspan></text>
</g>
</svg>
